<?xml version="1.0" encoding="iso-8859-1"?>
<!-- Generator: Adobe Illustrator 19.0.0, SVG Export Plug-In . SVG Version: 6.00 Build 0)  -->
<svg version="1.1" id="Layer_1" xmlns="http://www.w3.org/2000/svg" xmlns:xlink="http://www.w3.org/1999/xlink" x="0px" y="0px"
	 viewBox="0 0 512 512" style="enable-background:new 0 0 512 512;" xml:space="preserve">
<rect x="239.098" y="357.537" style="fill:#F9BE00;" width="84.34" height="72.063"/>
<path style="fill:#B88C1D;" d="M357.254,354.155c0.686,2.855-1.087,5.752-3.94,6.44l-129.147,31.098
	c-2.855,0.689-5.752-1.086-6.44-3.939l-16.395-68.092c-0.688-2.855,1.087-5.752,3.94-6.44l129.149-31.096
	c2.855-0.689,5.752,1.086,6.44,3.939L357.254,354.155z"/>
<path style="fill:#F9BE00;" d="M426.517,107.824c-12.866-13.395-34.156-13.824-47.551-0.957l-44.621,42.863
	c-5.605,5.379-10.446-2.024-10.883-9.64l-6.094-106.073c-0.871-15.172-13.883-26.782-29.05-25.891
	c-15.171,0.871-26.762,13.878-25.891,29.049l4.137,72.003l-24.207-81.484C238.03,13.125,222.71,4.828,208.143,9.152
	c-14.567,4.328-22.869,19.644-18.541,34.212l26.357,88.722l-42.46-78.65c-7.219-13.372-23.913-18.357-37.286-11.14
	c-13.372,7.22-18.358,23.914-11.14,37.286l37.48,69.422l-38.871-41.403c-10.402-11.077-27.813-11.633-38.895-1.227
	c-11.079,10.4-11.629,27.815-1.227,38.895l51.583,54.945c0.122,0.129,0.246,0.26,0.368,0.391l4.686,4.99
	c11.985,12.923,25.635,29.87,34.797,67.926l14.989,62.25c1.732,7.192,9.034,11.661,16.227,9.93l142.159-34.228
	c7.192-1.733,11.661-9.035,9.93-16.228l-9.315-38.681c-4.48-18.606,8.707-35.99,12.463-39.598l64.114-61.588
	C438.957,142.508,439.384,121.217,426.517,107.824z"/>
<path style="fill:#6E4C4B;" d="M360.483,429.7c0-5.872-4.804-10.676-10.676-10.676H212.737c-5.872,0-10.676,4.804-10.676,10.676
	v63.617c0,5.872,4.804,10.676,10.676,10.676h137.069c5.872,0,10.676-4.804,10.676-10.676V429.7z"/>
<g style="opacity:0.1;">
	<path d="M327.035,276.604c0.686,2.855-1.087,5.753-3.94,6.44l-102.754,24.745c-2.855,0.686-5.752-1.086-6.439-3.939l-17.267-71.712
		c-0.689-2.855,1.086-5.752,3.939-6.439l102.757-24.743c2.855-0.689,5.753,1.086,6.439,3.939L327.035,276.604z"/>
</g>
<path style="fill:#1E252B;" d="M247.108,469.515h68.326c4.423,0,8.007-3.584,8.007-8.007c0-4.423-3.584-8.007-8.007-8.007h-68.326
	c-4.423,0-8.007,3.584-8.007,8.007C239.102,465.931,242.686,469.515,247.108,469.515z M431.108,161.149
	c8.022-7.705,12.561-18.072,12.786-29.192c0.223-11.12-3.897-21.66-11.602-29.68c-7.925-8.251-18.59-12.794-30.033-12.794
	c-10.804,0-21.047,4.123-28.84,11.61l-41.769,40.122c-0.094-0.49-0.163-1.022-0.196-1.584l-6.094-106.072
	c-1.078-18.778-16.633-33.487-35.411-33.487c-0.697,0-1.396,0.021-2.092,0.062c-19.553,1.123-34.548,17.947-33.425,37.501
	l0.185,3.215l-4.585-15.433C245.589,10.451,231.589,0,215.989,0c-3.417,0-6.824,0.497-10.125,1.478
	c-18.777,5.579-29.515,25.392-23.937,44.167l4.327,14.565l-5.711-10.577c-6.21-11.504-18.197-18.652-31.283-18.652
	c-5.85,0-11.677,1.476-16.853,4.269c-17.235,9.305-23.687,30.898-14.382,48.136l8.656,16.033
	c-6.394-5.446-14.608-8.509-23.069-8.509c-9.064,0-17.696,3.418-24.307,9.626c-6.918,6.494-10.893,15.293-11.192,24.778
	c-0.299,9.483,3.112,18.516,9.607,25.434l56.604,60.289c11.363,12.255,24.214,28.345,32.883,64.356l14.989,62.251
	c2.196,9.116,9.946,15.637,19.168,16.362l8.577,35.622c0.834,3.459,2.969,6.39,6.013,8.251c2.128,1.302,4.518,1.971,6.947,1.971
	c1.045,0,2.098-0.124,3.139-0.374l5.053-1.217v12.756h-18.357c-10.301,0-18.683,8.382-18.683,18.683v63.617
	c0,10.301,8.382,18.683,18.683,18.683h137.07c10.301,0,18.683-8.382,18.683-18.683V429.7c0-10.301-8.382-18.683-18.683-18.683
	h-18.357v-36.921l23.741-5.717c7.152-1.724,11.571-8.945,9.85-16.098l-8.576-35.622c7.687-4.74,11.847-14.044,9.621-23.29
	l-9.315-38.682c-3.575-14.844,7.832-29.649,10.224-31.949L431.108,161.149z M349.807,427.031c1.447,0,2.669,1.222,2.669,2.669
	v63.617c0,1.447-1.222,2.669-2.669,2.669H212.737c-1.447,0-2.669-1.222-2.669-2.669V429.7c0-1.447,1.222-2.669,2.669-2.669H349.807z
	 M247.108,411.017v-16.613l68.326-16.453v33.066L247.108,411.017L247.108,411.017z M224.886,383.284l-7.702-31.99l123.958-29.847
	l7.702,31.988L224.886,383.284z M355.901,211.189c-5.494,5.278-19.987,25.289-14.701,47.246l9.315,38.68
	c0.691,2.871-1.15,5.879-4.02,6.57l-142.158,34.23c-0.415,0.1-0.837,0.152-1.257,0.152h-0.001c-2.497-0.001-4.731-1.754-5.312-4.17
	l-14.989-62.251c-9.574-39.767-23.97-57.756-36.744-71.532l-56.637-60.325c-3.567-3.8-5.44-8.76-5.276-13.968
	c0.164-5.209,2.347-10.041,6.147-13.608c3.63-3.409,8.37-5.287,13.346-5.287c5.449,0,10.502,2.188,14.23,6.158l38.871,41.403
	c2.752,2.931,7.254,3.366,10.518,1.015c3.264-2.352,4.276-6.76,2.365-10.3l-37.48-69.421c-5.111-9.466-1.567-21.326,7.898-26.437
	c2.886-1.557,5.996-2.347,9.245-2.347c7.192,0,13.779,3.926,17.191,10.246l42.46,78.65c1.948,3.611,6.313,5.162,10.104,3.596
	c3.792-1.567,5.786-5.748,4.617-9.68l-26.357-88.721c-3.063-10.311,2.833-21.193,13.145-24.257c1.82-0.54,3.693-0.815,5.566-0.815
	c8.564,0,16.252,5.74,18.693,13.96l24.207,81.484c1.157,3.897,5.051,6.314,9.054,5.607c4.003-0.699,6.848-4.289,6.614-8.345
	l-4.137-72.003c-0.616-10.741,7.618-19.98,18.367-20.597c10.839-0.646,19.971,7.659,20.587,18.356l6.094,106.073
	c0.716,12.491,8.113,19.027,15.049,19.027c2.341,0,5.869-0.706,9.375-4.071l44.622-42.864c4.796-4.608,11.098-7.144,17.746-7.144
	c7.043,0,13.607,2.796,18.484,7.875c4.741,4.934,7.277,11.421,7.14,18.264c-0.138,6.842-2.932,13.223-7.867,17.963L355.901,211.189z
	 M317.555,203.023c-1.446-6.02-6.784-10.223-12.98-10.223c-1.048,0-2.099,0.125-3.118,0.37l-102.756,24.743
	c-3.46,0.833-6.392,2.968-8.255,6.013c-1.863,3.045-2.429,6.627-1.596,10.086l17.267,71.711c1.449,6.018,6.787,10.221,12.981,10.221
	c1.046,0,2.096-0.125,3.117-0.37l102.753-24.745c7.152-1.721,11.572-8.942,9.853-16.099L317.555,203.023z M221.06,299.379
	l-16.017-66.523l97.567-23.492l16.015,66.521L221.06,299.379z"/>
<circle style="fill:#FFFFFF;" cx="302.791" cy="203.846" r="30.063"/>
<g>
</g>
<g>
</g>
<g>
</g>
<g>
</g>
<g>
</g>
<g>
</g>
<g>
</g>
<g>
</g>
<g>
</g>
<g>
</g>
<g>
</g>
<g>
</g>
<g>
</g>
<g>
</g>
<g>
</g>
</svg>
